<?xml version="1.0" standalone="no"?>
<!DOCTYPE svg PUBLIC "-//W3C//DTD SVG 20010904//EN"
 "http://www.w3.org/TR/2001/REC-SVG-20010904/DTD/svg10.dtd">
<svg version="1.0" xmlns="http://www.w3.org/2000/svg"
 width="1200.000000pt" height="1200.000000pt" viewBox="0 0 1200.000000 1200.000000"
 preserveAspectRatio="xMidYMid meet">

<g transform="translate(0.000000,1200.000000) scale(0.100000,-0.100000)"
fill="#000000" stroke="none">
<path d="M8561 8070 c-8 -25 -14 -30 -31 -25 -24 8 -26 -5 -6 -43 7 -15 21
-74 30 -132 10 -58 24 -131 32 -162 18 -73 18 -87 0 -62 -13 17 -14 15 -6 -21
13 -53 12 -88 0 -80 -5 3 -11 27 -11 53 l-2 47 -6 -42 c-4 -24 -10 -45 -13
-48 -13 -14 -38 87 -47 190 l-10 110 5 -125 c5 -140 -3 -155 -16 -29 -8 79 -8
77 -4 -28 4 -81 2 -113 -6 -113 -6 0 -8 4 -5 10 3 5 1 18 -4 27 -9 16 -10 15
-11 -7 0 -24 -35 -80 -42 -70 -3 3 -17 52 -32 110 -16 58 -34 110 -41 115 -6
6 -15 32 -18 59 -4 28 -11 52 -15 55 -13 10 -29 61 -43 138 -14 81 -29 87 -29
12 0 -27 -4 -49 -10 -49 -6 0 -10 -26 -10 -59 0 -33 -5 -63 -10 -66 -6 -4 -8
-11 -4 -16 3 -6 6 -67 6 -137 -1 -102 3 -135 18 -169 19 -44 17 -53 -11 -53
-20 0 -34 40 -45 126 -4 27 -11 56 -16 64 -7 11 -8 7 -5 -13 2 -15 0 -30 -4
-33 -5 -3 -9 2 -9 11 0 9 -5 13 -11 9 -6 -3 -9 -17 -6 -30 6 -33 -9 -40 -17
-9 -8 31 -26 33 -27 3 0 -13 -2 -36 -5 -53 -19 -131 -7 -269 33 -370 8 -22 17
-60 19 -84 1 -25 12 -57 23 -72 12 -16 21 -41 21 -56 0 -15 9 -65 20 -111 22
-92 25 -132 10 -132 -15 0 -25 28 -70 205 -23 88 -56 212 -75 275 -18 63 -52
198 -75 299 -23 102 -46 196 -52 210 -9 25 -10 26 -24 6 -32 -43 -55 -145 -48
-211 12 -115 -3 -81 -59 136 -14 52 -30 121 -37 153 -12 60 -24 72 -35 35 -4
-13 -20 -57 -36 -99 -60 -161 -65 -257 -23 -479 6 -33 5 -34 -10 -15 -16 19
-16 19 -11 -10 4 -19 -1 -12 -15 20 -23 56 -60 226 -60 275 0 27 -3 30 -19 25
-18 -5 -19 -2 -14 29 3 22 2 36 -5 36 -16 0 -25 55 -26 147 -1 45 -5 85 -9 89
-15 16 -28 -21 -22 -66 8 -63 -9 -38 -30 45 -10 39 -21 74 -25 78 -4 4 -13
-20 -19 -55 -7 -35 -17 -75 -21 -89 -5 -17 -4 -31 2 -37 8 -8 8 -15 -1 -26
-18 -21 -23 -273 -7 -300 7 -12 19 -55 25 -96 7 -41 18 -95 26 -120 7 -25 18
-79 25 -120 7 -41 19 -94 26 -118 8 -23 14 -55 14 -69 0 -26 -1 -26 -15 -7
-13 17 -14 17 -15 2 0 -27 -29 -21 -36 7 -3 14 -4 39 0 55 3 17 1 30 -4 30 -6
0 -10 9 -10 20 0 11 -4 20 -9 20 -5 0 -14 53 -20 118 -14 135 -34 247 -39 215
-3 -21 -4 -22 -21 -5 -10 9 -21 35 -25 57 -16 99 -17 101 -32 81 -7 -10 -17
-15 -23 -11 -13 8 -15 -17 -2 -31 5 -5 16 -49 24 -99 9 -49 19 -99 23 -109 5
-14 4 -17 -4 -12 -8 5 -14 -4 -19 -25 -6 -30 -7 -31 -20 -14 -7 11 -13 33 -13
51 0 45 -11 94 -21 94 -5 0 -9 -9 -9 -21 0 -17 -2 -18 -13 -7 -14 15 -37 97
-37 133 0 28 -15 34 -24 10 -3 -8 -9 -15 -13 -14 -20 3 -22 -3 -9 -23 18 -30
31 -118 17 -118 -6 0 -11 11 -11 24 0 13 -7 37 -15 52 -8 16 -15 40 -16 54 0
14 -4 34 -8 44 -13 34 -34 -155 -29 -259 3 -52 2 -95 -2 -95 -10 0 -20 26 -20
53 0 11 -8 39 -18 61 -30 66 -44 108 -55 164 -6 28 -13 52 -17 52 -4 0 -12
-39 -18 -87 -11 -89 -10 -176 2 -248 13 -73 -12 -13 -29 71 -16 77 -28 104
-38 87 -15 -26 -30 -93 -29 -128 2 -66 -20 -14 -26 61 -2 35 -9 64 -13 64 -5
0 -9 13 -9 29 0 17 -8 35 -18 43 -20 14 -45 171 -57 353 -3 50 -10 101 -15
115 -4 14 -12 39 -15 55 l-7 30 -13 -40 c-12 -37 -13 -38 -14 -11 -1 23 -4 26
-15 17 -11 -9 -17 5 -35 78 -11 49 -21 102 -21 118 0 15 -4 34 -9 42 -7 11
-13 7 -26 -18 -12 -25 -21 -31 -36 -26 -23 8 -25 -7 -5 -38 21 -32 38 -138 30
-187 -6 -38 -8 -40 -18 -23 -6 11 -17 18 -23 16 -8 -3 -13 5 -13 21 0 13 -5
37 -11 53 -6 15 -15 57 -20 93 -11 78 -22 91 -39 51 -10 -26 -16 -30 -36 -25
-29 7 -29 4 -5 -38 11 -19 27 -89 40 -171 11 -76 25 -147 31 -157 15 -29 12
-48 -5 -26 -13 17 -14 15 -20 -20 -3 -22 -7 -45 -8 -53 -1 -8 -6 -14 -12 -13
-15 3 -44 128 -46 197 -1 53 -3 56 -9 25 -4 -19 -8 -28 -9 -19 0 9 -8 19 -16
23 -9 3 -15 19 -15 41 0 20 -11 55 -24 79 -15 27 -26 68 -31 114 -8 82 -25 97
-25 22 0 -27 -4 -50 -8 -50 -11 0 -36 -171 -30 -210 3 -17 1 -33 -3 -35 -3 -3
-10 20 -14 50 -3 30 -11 55 -16 55 -5 0 -11 11 -15 25 -3 14 -11 25 -16 25 -6
0 -7 7 -4 16 7 19 -15 144 -26 144 -5 0 -8 -25 -8 -55 0 -30 -4 -55 -10 -55
-5 0 -10 -24 -10 -53 0 -30 -3 -57 -7 -61 -4 -3 -6 -71 -4 -149 2 -96 -2 -152
-10 -172 -12 -29 -13 -28 -25 49 -14 86 -24 108 -25 55 0 -28 -2 -30 -9 -14
-9 22 -17 11 -22 -35 -2 -18 -8 -9 -21 35 -36 124 -42 140 -52 140 -5 0 -22
-38 -38 -85 -26 -77 -27 -88 -15 -132 8 -32 8 -52 2 -58 -6 -6 -20 31 -38 110
-16 66 -32 122 -36 125 -4 3 -10 24 -14 47 -10 66 -26 118 -35 118 -5 0 -13
-17 -19 -37 -6 -21 -23 -72 -39 -113 l-27 -75 -12 55 c-7 30 -15 72 -19 93 -3
21 -11 37 -16 35 -6 -2 -20 -33 -33 -68 -13 -36 -29 -78 -36 -95 l-13 -30 -7
25 c-5 14 -9 61 -9 105 -1 44 -5 86 -10 94 -15 23 -33 -24 -26 -67 9 -55 -9
-19 -30 61 -9 37 -20 67 -24 67 -9 0 -31 -91 -31 -125 0 -13 -4 -27 -10 -30
-6 -4 -10 6 -10 24 0 16 -4 33 -10 36 -13 8 -24 -39 -16 -76 11 -59 -12 -18
-28 49 -23 93 -31 102 -44 50 -22 -91 -29 -139 -21 -144 5 -3 4 -15 -3 -27
-15 -26 -20 -273 -7 -296 5 -9 18 -59 29 -111 10 -52 24 -115 30 -140 6 -25
15 -64 20 -88 6 -23 7 -62 3 -85 l-6 -41 49 37 c188 144 404 222 640 234 335
16 641 -107 874 -353 421 -443 411 -1136 -24 -1570 -343 -343 -855 -430 -1291
-219 -219 106 -415 302 -520 519 -206 426 -128 937 195 1272 51 52 52 56 46
96 -4 24 -11 45 -16 48 -4 3 -14 52 -20 110 -15 143 -33 249 -38 228 -3 -14
-8 -16 -22 -8 -13 7 -22 31 -31 80 -7 38 -16 70 -21 70 -4 0 -8 -7 -8 -16 0
-11 -5 -14 -16 -10 -13 5 -15 2 -9 -16 4 -13 11 -45 16 -73 18 -93 26 -130 34
-147 5 -13 3 -18 -9 -18 -10 0 -16 -9 -16 -25 0 -14 -4 -25 -9 -25 -11 0 -20
35 -22 85 -1 36 -3 33 -14 -25 -7 -36 -14 -56 -15 -45 -2 17 -3 17 -9 -4 -12
-46 -28 -33 -47 39 -10 38 -21 70 -26 70 -4 0 -8 11 -8 25 0 14 -6 36 -14 48
-8 12 -17 45 -21 72 l-8 50 -14 -65 c-16 -72 -17 -253 -3 -281 13 -24 13 -29
-4 -29 -16 0 -21 13 -31 72 -5 26 -11 35 -21 31 -8 -3 -14 -13 -14 -22 0 -13
-2 -13 -9 -2 -7 11 -10 10 -15 -5 -16 -53 -14 -133 4 -204 11 -41 22 -90 24
-108 2 -18 8 -38 14 -45 13 -16 36 -150 29 -168 -4 -12 -6 -11 -10 1 -10 27
-116 433 -133 510 -9 41 -20 82 -25 90 -13 25 -42 -57 -42 -120 l1 -55 -20 60
c-10 33 -17 72 -14 88 3 15 1 27 -4 27 -6 0 -10 11 -10 25 0 14 -8 33 -19 44
-20 20 -45 171 -56 336 -4 50 -14 119 -23 155 l-16 65 -12 -40 c-10 -33 -13
-35 -13 -14 -1 19 -6 26 -18 25 -12 -1 -19 10 -25 34 -18 86 -28 138 -33 173
-7 45 -17 47 -32 6 -10 -25 -16 -29 -32 -24 -25 7 -26 -1 -7 -41 8 -16 21 -74
30 -129 9 -55 23 -129 31 -165 17 -72 18 -95 5 -65 -6 13 -7 -3 -3 -45 6 -73
-8 -75 -18 -2 l-6 47 -2 -42 c0 -23 -5 -44 -10 -47 -17 -11 -35 54 -47 179
l-13 130 4 -130 c2 -77 0 -116 -5 -95 -7 32 -8 30 -10 -25 -1 -33 -4 -51 -7
-40 -8 33 -23 42 -23 14 0 -27 -35 -76 -43 -62 -3 4 -17 53 -32 108 -15 55
-33 107 -41 116 -8 8 -14 28 -14 44 0 15 -11 51 -24 79 -14 28 -30 83 -37 123
-14 81 -29 88 -29 12 0 -27 -4 -49 -8 -49 -10 0 -10 -1 -16 -212 -5 -160 -4
-183 13 -227 21 -51 19 -61 -10 -61 -20 0 -32 36 -44 125 -3 28 -11 57 -16 65
-7 11 -8 5 -4 -20 5 -32 5 -33 -9 -17 -17 22 -30 7 -21 -23 4 -11 2 -20 -4
-20 -6 0 -14 12 -17 26 -14 55 -28 -4 -39 -165 -4 -65 21 -216 46 -276 7 -16
13 -50 14 -73 2 -26 11 -55 24 -72 11 -16 21 -39 21 -52 0 -13 9 -63 20 -112
23 -104 25 -139 8 -134 -15 5 -24 36 -163 558 -13 47 -39 155 -58 240 -40 175
-53 214 -67 205 -5 -3 -21 -42 -35 -85 -20 -64 -24 -93 -19 -143 4 -42 2 -57
-4 -47 -8 12 -79 286 -98 378 -2 12 -8 22 -12 22 -10 0 -79 -192 -93 -260 -18
-86 -15 -166 16 -340 5 -26 4 -31 -4 -20 -9 12 -11 10 -12 -10 -1 -21 -2 -22
-6 -5 -3 11 -11 34 -18 50 -14 31 -58 224 -54 241 4 24 -2 45 -13 42 -16 -4
-20 6 -11 28 4 10 0 22 -9 28 -21 15 -31 65 -32 158 -1 42 -5 80 -9 84 -15 16
-28 -21 -22 -66 8 -63 -10 -33 -31 52 -9 38 -20 70 -24 73 -8 5 -28 -78 -35
-150 -3 -27 -9 -88 -14 -135 -12 -108 -9 -206 7 -222 7 -7 12 -21 12 -33 0
-19 15 -96 39 -195 5 -25 15 -72 22 -105 6 -33 17 -83 25 -112 8 -28 13 -64
13 -80 -1 -16 -3 -21 -6 -10 -5 21 -23 23 -23 2 0 -31 -37 -15 -54 23 -41 89
-86 107 -86 33 0 -22 5 -43 10 -46 6 -3 10 -15 10 -26 0 -25 41 -152 47 -146
2 3 -3 32 -11 65 -9 33 -16 66 -16 73 0 18 24 -28 40 -75 6 -20 15 -34 19 -31
5 2 11 -14 14 -38 3 -23 9 -61 13 -84 4 -28 3 -43 -4 -43 -6 0 -12 15 -14 33
-4 31 -4 31 -13 -11 -5 -30 -11 -39 -16 -30 -7 10 -9 9 -9 -3 0 -9 -6 -22 -14
-28 -10 -9 -16 2 -31 57 -10 37 -22 71 -26 76 -5 6 -9 18 -9 27 0 9 -6 29 -14
44 -8 15 -17 50 -21 76 -4 27 -11 49 -16 49 -5 0 -7 -12 -5 -27 3 -15 0 -33
-6 -41 -15 -17 -14 -236 1 -274 7 -19 7 -29 -1 -34 -15 -10 -27 14 -34 71 -4
28 -9 44 -11 37 -3 -6 -9 -10 -14 -6 -5 3 -9 -5 -10 -18 0 -13 -3 -17 -6 -10
-11 28 -22 8 -28 -53 -6 -49 -2 -87 15 -162 12 -54 28 -111 35 -128 7 -16 18
-57 24 -90 6 -33 14 -71 18 -84 4 -17 2 -22 -7 -19 -13 4 -80 235 -125 433
-34 152 -44 185 -55 185 -16 0 -41 -102 -34 -140 11 -71 -15 -6 -37 90 -12 52
-25 104 -29 115 l-8 20 -7 -20 c-4 -11 -16 -42 -27 -69 -22 -53 -29 -177 -15
-258 5 -28 4 -48 -1 -48 -15 0 -33 50 -45 127 -6 40 -16 73 -22 73 -11 0 -12
7 -21 110 -6 72 -23 105 -25 49 -1 -33 -1 -33 -16 15 -19 61 -28 49 -43 -59
-13 -95 -9 -181 14 -280 37 -158 49 -223 50 -275 1 -30 5 -75 9 -100 6 -34 0
-23 -26 46 -36 100 -63 148 -77 139 -12 -7 -13 -48 -2 -59 4 -4 12 -29 19 -54
7 -26 10 -33 8 -14 -6 40 -1 41 19 1 21 -42 32 -124 17 -133 -14 -9 -14 -94 0
-134 6 -18 15 -29 21 -26 6 4 8 -4 4 -23 -5 -23 -3 -32 9 -37 11 -4 14 -12 10
-26 -4 -14 -2 -20 6 -18 9 2 12 -10 10 -41 -3 -49 -37 -105 -59 -96 -11 4 -12
-22 -7 -148 8 -199 11 -230 24 -307 6 -36 11 -90 11 -121 0 -67 9 -121 20
-114 6 4 16 -58 36 -235 10 -91 16 -111 28 -101 6 5 16 7 22 3 11 -8 34 -92
34 -127 0 -14 5 -25 10 -25 6 0 10 7 10 15 0 8 7 15 16 15 11 0 14 5 9 18 -4
9 -13 57 -21 106 -9 49 -19 98 -25 108 -7 14 -6 18 6 18 9 0 15 9 15 25 0 14
4 25 10 25 10 0 17 -23 23 -75 3 -24 5 -19 12 23 5 35 11 49 16 40 7 -10 9 -9
9 3 0 9 6 22 14 28 11 10 17 -1 31 -59 9 -39 21 -73 26 -76 5 -3 9 -13 9 -23
0 -10 6 -31 14 -46 8 -15 17 -50 21 -76 4 -27 11 -47 15 -44 4 3 6 14 3 25 -3
11 0 27 7 35 16 19 15 256 0 285 -7 13 -7 21 1 26 16 9 27 -12 35 -71 4 -27 9
-44 11 -37 3 6 9 10 14 6 5 -3 9 5 10 18 0 22 1 22 8 3 l8 -20 6 20 c18 57 17
134 -4 225 -11 52 -26 106 -32 120 -14 32 -48 193 -42 199 3 2 8 1 11 -2 8 -8
72 -243 119 -437 44 -178 44 -180 55 -180 15 0 39 97 34 137 -4 27 -2 34 4 23
9 -13 30 -93 58 -219 7 -31 16 -19 44 58 17 47 24 86 24 148 1 46 4 75 8 66 8
-21 35 -252 43 -373 4 -47 10 -96 15 -110 5 -14 12 -38 15 -55 l7 -30 13 40
c12 37 13 38 14 11 1 -23 4 -26 14 -17 11 9 18 -6 35 -74 12 -47 22 -100 22
-118 0 -52 15 -65 34 -29 12 23 21 29 36 25 24 -6 26 9 6 40 -8 12 -22 67 -31
122 -28 173 -37 215 -46 209 -11 -6 -12 8 -2 32 6 16 7 16 14 -2 4 -10 6 10 4
46 -3 56 -3 58 3 18 10 -62 22 -72 22 -20 0 23 5 42 10 42 20 0 33 -55 46
-190 l13 -135 -4 135 c-2 80 0 121 4 100 7 -31 9 -27 11 30 1 36 4 56 7 45 8
-33 23 -42 23 -13 0 14 9 36 19 49 23 28 18 36 57 -106 15 -55 34 -104 41
-108 7 -4 13 -24 13 -43 0 -19 11 -54 24 -77 14 -25 26 -69 30 -108 10 -88 26
-111 26 -36 0 31 4 57 8 57 15 0 31 167 28 290 -3 86 -9 136 -20 162 -21 48
-21 48 8 48 26 0 24 6 55 -150 9 -44 9 -44 11 -10 1 34 2 34 11 10 13 -31 28
-11 22 28 -4 26 -4 26 11 8 9 -11 16 -26 16 -35 0 -8 3 -11 7 -7 8 8 24 111
28 181 4 75 -38 295 -57 295 -4 0 -7 18 -6 39 1 39 -18 101 -32 101 -4 0 -10
24 -13 53 -4 28 -15 89 -25 134 -18 77 -15 121 6 98 5 -6 33 -98 61 -205 28
-107 62 -233 76 -280 14 -46 43 -163 64 -260 45 -200 62 -256 76 -253 6 0 23
38 38 84 26 76 27 87 15 131 -8 33 -9 51 -2 58 12 12 62 -154 90 -296 15 -77
29 -114 36 -104 16 20 71 193 78 241 5 33 14 67 20 74 8 9 10 33 7 62 -3 26
-9 77 -13 113 -3 36 -10 69 -15 75 -5 5 -9 23 -8 40 0 26 2 27 9 10 7 -17 9
-16 10 10 l2 30 7 -31 c4 -17 11 -36 15 -42 16 -26 36 -122 42 -200 6 -76 9
-83 26 -79 17 5 18 2 13 -24 -5 -23 -2 -34 11 -44 15 -11 20 -32 24 -118 3
-58 8 -109 13 -113 14 -14 22 8 20 59 -1 61 7 48 32 -45 10 -38 21 -68 25 -68
9 0 42 169 36 179 -2 3 2 29 9 56 14 55 13 56 31 -49 6 -34 8 -37 19 -23 7 10
18 17 25 17 8 0 9 6 5 18 -5 9 -16 58 -26 107 -9 50 -21 100 -25 113 -5 16 -3
22 7 20 7 -2 16 10 19 27 l7 30 11 -28 c7 -16 12 -45 13 -65 1 -20 5 -48 9
-62 8 -25 8 -25 15 -3 6 17 10 20 19 10 14 -14 36 -94 36 -131 0 -14 5 -26 10
-26 6 0 10 7 10 15 0 8 9 15 19 15 19 0 19 2 7 33 -20 47 -31 121 -17 113 6
-4 11 -16 11 -27 0 -11 6 -32 14 -47 7 -15 17 -49 21 -77 l8 -50 14 80 c9 50
13 120 11 188 -4 99 1 130 16 91 3 -9 6 -25 6 -37 0 -12 7 -35 16 -52 23 -44
64 -171 64 -200 0 -14 4 -25 8 -25 12 0 31 173 27 250 -1 36 -7 77 -13 92 -7
16 -7 30 -2 33 9 6 15 -14 41 -129 8 -33 19 -61 25 -63 15 -5 37 73 35 125 -1
23 1 42 3 42 2 0 17 -53 32 -117 15 -65 31 -122 34 -126 10 -11 49 101 64 180
l12 67 13 -95 c7 -52 16 -146 21 -209 9 -118 29 -220 42 -220 5 0 8 10 8 23 0
12 5 29 10 37 8 12 10 9 10 -12 0 -19 4 -26 14 -22 16 6 29 -38 49 -163 7 -39
15 -74 18 -78 4 -3 12 8 19 25 10 25 17 29 36 24 27 -7 30 3 10 32 -22 31 -39
147 -30 202 6 39 8 43 13 22 3 -14 13 -25 21 -25 10 0 16 -12 18 -35 2 -19 8
-40 12 -45 5 -6 12 -31 15 -55 13 -94 16 -110 24 -110 5 0 14 13 19 29 8 23
15 28 31 24 24 -6 27 8 7 40 -7 12 -21 69 -30 127 -17 102 -29 169 -42 220 -4
20 -3 22 5 10 8 -12 11 -8 12 20 1 32 2 33 9 10 7 -22 8 -21 9 12 3 125 59
-48 63 -196 l1 -61 7 55 c4 30 7 47 8 38 1 -10 6 -18 11 -18 5 0 12 -21 16
-47 4 -25 18 -63 31 -84 13 -21 23 -46 22 -56 -3 -31 14 -123 23 -123 5 0 9
23 9 50 0 28 4 50 9 50 11 0 23 97 23 183 0 37 4 67 9 67 5 0 9 -17 9 -38 0
-20 11 -58 25 -84 14 -26 25 -57 25 -70 0 -34 24 -128 32 -128 5 0 8 25 8 55
0 30 5 55 10 55 6 0 10 26 10 59 0 33 4 62 8 65 4 2 5 38 1 78 -6 66 5 255 15
265 4 5 11 -24 22 -97 3 -25 10 -52 15 -60 5 -10 7 -2 3 20 -5 32 -4 33 9 17
18 -22 31 -7 22 23 -4 11 -2 20 4 20 10 0 14 -13 44 -125 20 -79 39 -71 70 31
19 64 23 92 16 111 -12 31 -12 90 0 78 5 -6 19 -55 31 -110 12 -55 28 -111 35
-125 7 -14 17 -54 24 -89 9 -57 25 -94 33 -80 2 2 19 50 38 107 19 56 37 102
41 102 3 0 12 -33 19 -72 7 -40 15 -79 17 -85 8 -20 21 -15 28 10 14 50 60
167 66 167 9 0 18 -71 18 -143 1 -70 14 -104 27 -66 4 13 6 40 5 59 -4 52 4
35 30 -60 l22 -84 12 35 c7 19 16 60 20 90 l8 54 10 -37 c16 -67 44 -33 32 39
-10 61 11 19 31 -59 9 -38 20 -70 24 -73 9 -5 30 85 35 157 3 29 9 71 13 93
l8 40 12 -53 c7 -29 12 -61 12 -70 1 -16 2 -16 14 1 7 9 19 17 26 17 8 0 9 6
5 18 -4 9 -14 53 -21 97 -8 44 -18 92 -23 106 -7 21 -6 29 5 33 8 3 14 15 14
26 0 11 4 20 9 20 13 0 21 -26 22 -73 1 -40 2 -40 13 18 7 35 14 54 18 45 5
-13 7 -13 7 1 1 9 7 22 15 28 11 10 17 -1 31 -59 9 -39 21 -73 26 -76 5 -3 9
-16 9 -30 0 -14 6 -35 14 -47 8 -12 18 -44 22 -72 l7 -50 14 65 c16 74 17 254
2 283 -8 13 -8 22 0 30 16 16 28 -5 37 -68 4 -27 9 -44 11 -37 3 6 9 10 14 6
5 -3 9 5 10 18 0 22 1 22 9 3 7 -19 8 -18 14 5 18 75 4 246 -24 274 -4 4 -6
14 -3 22 2 7 -2 28 -10 46 -27 58 -50 207 -29 182 11 -12 75 -247 121 -443 20
-85 41 -156 47 -158 15 -5 43 96 38 137 -4 32 -4 33 7 10 5 -14 21 -69 34
-124 14 -54 26 -101 29 -103 2 -2 16 31 32 74 22 60 29 95 29 155 0 42 1 75 3
73 7 -6 31 -208 42 -345 6 -74 19 -157 28 -185 l16 -50 7 33 c9 43 19 53 19
19 0 -19 4 -25 15 -21 10 4 16 -3 20 -23 4 -15 11 -41 16 -58 4 -16 11 -55 15
-85 9 -78 18 -90 38 -53 12 24 21 30 36 26 24 -6 26 9 6 40 -8 12 -21 63 -30
112 -9 50 -21 120 -27 157 -7 40 -16 65 -22 61 -7 -4 -7 3 -2 18 4 13 11 47
16 74 8 49 8 49 5 -15 l-3 -65 15 53 c8 28 18 52 22 52 18 0 34 -67 45 -195
l13 -140 -3 140 c-2 87 -1 123 4 95 8 -43 8 -41 11 30 1 41 5 65 7 53 6 -30
23 -29 23 0 0 13 9 32 19 41 22 20 20 23 62 -129 12 -44 25 -83 31 -86 5 -3
11 -23 15 -45 3 -21 16 -57 28 -80 14 -25 25 -68 30 -112 9 -87 25 -105 25
-28 0 31 4 56 9 56 25 0 37 359 14 425 -27 77 -27 75 0 75 27 0 29 -6 53 -150
l8 -45 7 35 c4 22 7 27 8 13 2 -37 20 -26 23 15 l4 37 16 -35 16 -35 6 35 c3
19 8 53 11 75 16 106 13 145 -31 348 -4 15 -10 27 -15 27 -5 0 -8 18 -7 39 1
39 -18 101 -32 101 -4 0 -11 24 -14 53 -4 28 -16 90 -27 136 -13 58 -16 88 -9
95 17 17 25 -3 64 -154 21 -80 55 -206 76 -280 21 -74 57 -216 79 -315 53
-235 60 -257 74 -252 7 2 25 41 40 87 26 77 27 88 15 132 -8 34 -9 51 -1 59
10 10 54 -139 92 -314 9 -44 23 -83 29 -85 7 -2 12 3 12 11 0 9 14 50 31 93
17 42 35 102 39 133 5 31 14 74 21 96 8 29 8 53 0 90 -5 27 -13 68 -15 90 -3
22 -9 57 -15 78 -5 20 -5 37 -1 37 5 0 11 -8 13 -17 3 -11 6 -6 7 12 l2 30 8
-30 c5 -16 18 -61 30 -100 11 -38 23 -105 27 -148 5 -71 8 -77 26 -71 17 5 18
3 12 -26 -5 -24 -3 -34 11 -44 14 -11 18 -32 21 -102 2 -49 6 -100 9 -114 5
-24 6 -24 20 -6 9 12 12 34 9 60 -4 32 1 25 20 -34 14 -41 25 -82 25 -90 0
-13 1 -13 10 0 11 18 30 103 35 163 3 23 8 85 13 137 6 56 6 105 1 119 -6 15
-6 28 1 37 8 9 8 19 -2 36 -12 22 -39 135 -73 308 -8 41 -21 103 -28 138 -11
51 -11 71 -1 110 7 26 13 38 14 27 l1 -20 8 20 c7 18 10 15 25 -19 9 -21 16
-41 16 -45 0 -3 9 -17 20 -31 11 -14 20 -33 20 -43 0 -10 6 -28 14 -40 8 -12
18 -43 21 -69 4 -27 12 -48 17 -48 6 0 7 11 4 26 -4 15 -2 32 5 40 17 21 19
219 2 267 -11 35 -11 38 5 35 11 -2 20 -19 27 -54 6 -33 14 -49 23 -47 6 3 12
12 13 21 0 11 2 12 6 5 25 -64 41 106 18 197 -9 36 -20 84 -25 107 -5 23 -14
50 -19 60 -5 10 -14 45 -21 78 -6 33 -14 68 -17 79 -3 12 -1 17 8 14 13 -4 68
-192 125 -433 43 -183 43 -185 53 -185 14 0 40 113 35 150 -10 69 13 6 41
-113 15 -64 30 -115 33 -112 25 25 72 227 62 266 -13 48 -20 129 -12 129 12 0
41 -92 48 -156 4 -29 11 -51 15 -48 5 3 9 -6 9 -20 0 -14 5 -28 10 -31 6 -3
10 -35 10 -70 0 -68 19 -103 21 -38 l1 38 17 -55 c20 -63 24 -58 41 62 15 104
12 165 -16 283 -39 166 -46 207 -48 270 -1 33 -6 80 -10 105 -5 32 1 20 22
-41 32 -95 61 -151 77 -146 14 5 19 57 6 57 -6 0 -11 12 -12 28 0 15 -5 36
-10 47 -7 15 -8 11 -4 -15 l6 -35 -21 40 c-25 47 -39 135 -21 135 14 0 15 82
0 133 -6 22 -14 35 -21 31 -7 -4 -8 4 -4 23 5 23 3 32 -8 36 -9 4 -13 13 -10
22 4 9 1 15 -9 15 -22 0 -10 76 18 117 17 26 24 30 34 20 9 -9 11 22 6 148 -9
207 -10 227 -24 310 -6 39 -11 93 -11 121 0 62 -10 115 -20 109 -8 -5 -30 139
-30 194 0 19 -5 64 -11 99 -9 47 -14 61 -21 49 -17 -31 -36 -6 -49 69 -7 41
-17 74 -21 74 -4 0 -8 -7 -8 -16 0 -11 -5 -14 -16 -10 -13 5 -15 2 -9 -16 4
-13 13 -61 21 -108 8 -47 19 -93 24 -103 8 -13 7 -19 -5 -23 -8 -4 -15 -17
-15 -30 0 -55 -29 -12 -31 46 0 23 -1 23 -9 5 -5 -11 -9 -33 -10 -50 -1 -25
-3 -27 -9 -10 -7 17 -8 17 -15 -8 -10 -40 -22 -33 -36 21 -7 26 -18 61 -25 77
-27 67 -38 103 -48 155 -10 46 -12 50 -15 25 -2 -16 -9 -36 -15 -43 -13 -17
-11 -239 3 -277 9 -23 8 -26 -7 -23 -12 2 -21 19 -28 54 -6 33 -14 49 -22 47
-7 -3 -13 -12 -13 -21 0 -15 -2 -15 -10 -2 -15 24 -24 -15 -24 -100 0 -67 33
-235 52 -265 4 -5 14 -46 24 -90 17 -84 8 -129 -12 -54 -6 24 -29 107 -50 185
-21 78 -51 192 -65 255 -32 140 -34 149 -44 149 -14 0 -41 -105 -36 -145 4
-38 4 -37 -15 15 -10 30 -19 70 -19 88 -1 17 -5 32 -11 32 -5 0 -10 16 -10 35
0 20 -6 37 -15 42 -16 9 -55 276 -55 376 0 29 -9 79 -19 112 -18 57 -19 59
-26 30 -11 -47 -13 -52 -14 -26 -1 16 -5 21 -16 17 -10 -4 -16 3 -20 22 -3 15
-10 42 -16 60 -6 18 -15 60 -19 94 -11 75 -24 91 -39 48z m-2004 -442 c-3 -8
-6 -5 -6 6 -1 11 2 17 5 13 3 -3 4 -12 1 -19z m-160 -90 c-3 -7 -5 -2 -5 12 0
14 2 19 5 13 2 -7 2 -19 0 -25z m2053 -45 c-11 -17 -11 -17 -6 0 3 10 7 28 7
40 2 22 2 22 6 0 2 -12 -1 -30 -7 -40z m-4220 -78 c0 -14 -4 -25 -9 -25 -4 0
-6 11 -3 25 2 14 6 25 8 25 2 0 4 -11 4 -25z m5087 -247 c-3 -7 -5 -2 -5 12 0
14 2 19 5 13 2 -7 2 -19 0 -25z m-2050 -30 c-3 -7 -5 -2 -5 12 0 14 2 19 5 13
2 -7 2 -19 0 -25z m-2180 -70 c-3 -7 -5 -2 -5 12 0 14 2 19 5 13 2 -7 2 -19 0
-25z m4383 -669 c0 -6 -4 -7 -10 -4 -5 3 -10 11 -10 16 0 6 5 7 10 4 6 -3 10
-11 10 -16z m-6920 -1082 c0 -5 -4 -5 -10 -2 -5 3 -10 14 -10 23 0 15 2 15 10
2 5 -8 10 -19 10 -23z m4367 -669 c-3 -8 -6 -5 -6 6 -1 11 2 17 5 13 3 -3 4
-12 1 -19z m912 -92 c-9 -8 -10 -7 -5 7 3 10 7 26 7 35 1 9 4 6 6 -7 3 -13 -1
-28 -8 -35z m-3092 12 c-3 -7 -5 -2 -5 12 0 14 2 19 5 13 2 -7 2 -19 0 -25z
m-2050 -20 c-3 -8 -6 -5 -6 6 -1 11 2 17 5 13 3 -3 4 -12 1 -19z m920 -75 c-3
-10 -5 -4 -5 12 0 17 2 24 5 18 2 -7 2 -21 0 -30z m1900 -115 c-3 -8 -6 -5 -6
6 -1 11 2 17 5 13 3 -3 4 -12 1 -19z m1233 -28 c0 -5 -5 -10 -11 -10 -5 0 -7
5 -4 10 3 6 8 10 11 10 2 0 4 -4 4 -10z"/>
<path d="M8481 7874 c0 -11 3 -14 6 -6 3 7 2 16 -1 19 -3 4 -6 -2 -5 -13z"/>
<path d="M6302 7790 c0 -19 2 -27 5 -17 2 9 2 25 0 35 -3 9 -5 1 -5 -18z"/>
<path d="M4243 7640 c0 -36 2 -50 4 -32 2 17 2 47 0 65 -2 17 -4 3 -4 -33z"/>
<path d="M5897 6840 c-339 -41 -630 -298 -718 -635 -30 -113 -30 -298 0 -410
92 -347 389 -603 731 -633 271 -23 486 52 682 237 38 35 68 67 68 72 0 5 -21
-6 -47 -25 -121 -86 -235 -120 -393 -120 -96 1 -128 5 -195 27 -208 69 -360
214 -438 421 -29 76 -31 90 -31 221 -1 128 1 147 27 222 62 179 189 320 360
397 88 41 146 55 245 62 145 10 320 -40 429 -123 24 -18 43 -29 43 -24 0 13
-130 133 -184 170 -159 110 -384 164 -579 141z"/>
<path d="M6070 6298 l0 -184 -170 -55 c-93 -30 -170 -56 -170 -59 0 -3 77 -30
170 -59 l170 -55 0 -184 0 -184 101 142 c56 78 108 144 115 147 7 2 87 -20
178 -50 92 -30 166 -53 166 -51 0 2 -48 69 -106 149 l-106 145 106 145 c58 80
106 147 106 149 0 2 -73 -21 -162 -50 -90 -30 -168 -54 -175 -54 -6 0 -59 66
-117 146 l-106 146 0 -184z"/>
<path d="M2741 4384 c0 -11 3 -14 6 -6 3 7 2 16 -1 19 -3 4 -6 -2 -5 -13z"/>
<path d="M7813 4325 c0 -27 2 -38 4 -22 2 15 2 37 0 50 -2 12 -4 0 -4 -28z"/>
<path d="M3583 4245 c0 -33 2 -45 4 -27 2 18 2 45 0 60 -2 15 -4 0 -4 -33z"/>
</g>
</svg>
